HIERARCHY
ROOT Hips
{
	OFFSET 0.00000 0.00000 0.00000
	CHANNELS 6 Xposition Yposition Zposition Zrotation Yrotation Xrotation 
	JOINT LHipJoint
	{
		OFFSET 0 0 0
		CHANNELS 3 Zrotation Yrotation Xrotation
		JOINT LeftUpLeg
		{
			OFFSET 1.58895 -1.83665 0.71753
			CHANNELS 3 Zrotation Yrotation Xrotation
			JOINT LeftLeg
			{
				OFFSET 2.50528 -6.88321 0.00000
				CHANNELS 3 Zrotation Yrotation Xrotation
				JOINT LeftFoot
				{
					OFFSET 2.63244 -7.23257 0.00000
					CHANNELS 3 Zrotation Yrotation Xrotation
					JOINT LeftToeBase
					{
						OFFSET 0.23691 -0.65090 1.72750
						CHANNELS 3 Zrotation Yrotation Xrotation
						End Site
						{
							OFFSET 0.00000 -0.00000 0.92561
						}
					}
				}
			}
		}
	}
	JOINT RHipJoint
	{
		OFFSET 0 0 0
		CHANNELS 3 Zrotation Yrotation Xrotation
		JOINT RightUpLeg
		{
			OFFSET -1.51435 -1.83665 0.71753
			CHANNELS 3 Zrotation Yrotation Xrotation
			JOINT RightLeg
			{
				OFFSET -2.54551 -6.99375 0.00000
				CHANNELS 3 Zrotation Yrotation Xrotation
				JOINT RightFoot
				{
					OFFSET -2.66027 -7.30903 0.00000
					CHANNELS 3 Zrotation Yrotation Xrotation
					JOINT RightToeBase
					{
						OFFSET -0.22981 -0.63138 2.03959
						CHANNELS 3 Zrotation Yrotation Xrotation
						End Site
						{
							OFFSET -0.00000 -0.00000 1.07060
						}
					}
				}
			}
		}
	}
	JOINT LowerBack
	{
		OFFSET 0 0 0
		CHANNELS 3 Zrotation Yrotation Xrotation
		JOINT Spine
		{
			OFFSET -0.02651 1.86275 -0.11152
			CHANNELS 3 Zrotation Yrotation Xrotation
			JOINT Spine1
			{
				OFFSET 0.01019 1.86224 0.04087
				CHANNELS 3 Zrotation Yrotation Xrotation
				JOINT Neck
				{
					OFFSET 0 0 0
					CHANNELS 3 Zrotation Yrotation Xrotation
					JOINT Neck1
					{
						OFFSET -0.01926 1.80512 0.08867
						CHANNELS 3 Zrotation Yrotation Xrotation
						JOINT Head
						{
							OFFSET 0.05516 1.76451 -0.38475
							CHANNELS 3 Zrotation Yrotation Xrotation
							End Site
							{
								OFFSET 0.01592 1.82587 -0.14001
							}
						}
					}
				}
				JOINT LeftShoulder
				{
					OFFSET 0 0 0
					CHANNELS 3 Zrotation Yrotation Xrotation
					JOINT LeftArm
					{
						OFFSET 3.47116 1.51376 0.14491
						CHANNELS 3 Zrotation Yrotation Xrotation
						JOINT LeftForeArm
						{
							OFFSET 4.78095 -0.00000 0.00000
							CHANNELS 3 Zrotation Yrotation Xrotation
							JOINT LeftHand
							{
								OFFSET 3.58615 -0.00000 -0.00000
								CHANNELS 3 Zrotation Yrotation Xrotation
								JOINT LeftFingerBase
								{
									OFFSET 0 0 0
									CHANNELS 3 Zrotation Yrotation Xrotation
									JOINT LeftHandIndex1
									{
										OFFSET 0.65981 -0.00000 0.00000
										CHANNELS 3 Zrotation Yrotation Xrotation
										End Site
										{
											OFFSET 0.53196 -0.00000 0.00000
										}
									}
								}
								JOINT LThumb
								{
									OFFSET 0 0 0
									CHANNELS 3 Zrotation Yrotation Xrotation
									End Site
									{
										OFFSET 0.54008 -0.00000 0.54008
									}
								}
							}
						}
					}
				}
				JOINT RightShoulder
				{
					OFFSET 0 0 0
					CHANNELS 3 Zrotation Yrotation Xrotation
					JOINT RightArm
					{
						OFFSET -3.31725 1.61216 0.35156
						CHANNELS 3 Zrotation Yrotation Xrotation
						JOINT RightForeArm
						{
							OFFSET -4.48913 -0.00000 0.00000
							CHANNELS 3 Zrotation Yrotation Xrotation
							JOINT RightHand
							{
								OFFSET -3.70510 -0.00000 0.00000
								CHANNELS 3 Zrotation Yrotation Xrotation
								JOINT RightFingerBase
								{
									OFFSET 0 0 0
									CHANNELS 3 Zrotation Yrotation Xrotation
									JOINT RightHandIndex1
									{
										OFFSET -0.44914 -0.00000 0.00000
										CHANNELS 3 Zrotation Yrotation Xrotation
										End Site
										{
											OFFSET -0.36211 -0.00000 0.00000
										}
									}
								}
								JOINT RThumb
								{
									OFFSET 0 0 0
									CHANNELS 3 Zrotation Yrotation Xrotation
									End Site
									{
										OFFSET -0.36763 -0.00000 0.36763
									}
								}
							}
						}
					}
				}
			}
		}
	}
}
MOTION
Frames: 6
Frame Time: .0083333
-0.6574 18.8778 6.3108 1.0742 -9.0010 9.7298 0.0000 0.0000 0.0000 -15.4609 0.2669 -11.6242 1.1150 6.7082 18.8537 1.0079 2.2914 -19.9208 8.3741 -16.3876 -53.8993 0.0000 0.0000 0.0000 11.2423 8.1573 0.9584 0.0000 0.0000 -0.0000 -0.8186 -6.3901 -20.5718 -0.0521 1.4727 -4.0504 7.8885 -3.3185 23.8258 2.8499 -1.6381 -2.1991 -0.5650 -1.2425 -16.2488 3.6781 3.7953 -20.6331 -7.9146 4.9842 5.5742 -2.5914 1.9256 5.2859 -0.0000 0.0000 0.0000 -23.3558 6.3531 -43.0543 30.3556 -41.1962 -11.6431 -0.0000 -0.0000 7.7940 -27.7481 -4.9788 2.6142 -7.1250 0.0000 -0.0000 -36.9654 22.9068 25.3777 -0.0000 0.0000 0.0000 15.0125 -23.7643 -22.2578 -32.5878 43.0108 -13.1401 0.0000 0.0000 0.6619 19.5342 -39.8199 -12.8003 7.1250 -0.0000 -0.0000 61.8172 -59.1457 -27.5796
-0.6738 18.8792 6.3082 1.1250 -8.8175 9.6563 0.0000 0.0000 0.0000 -15.4271 0.2214 -11.6285 1.1239 6.7339 18.9294 0.9913 2.2837 -19.7620 8.3940 -16.4015 -53.9698 0.0000 0.0000 0.0000 11.2727 7.9525 1.0146 0.0000 -0.0000 0.0000 -0.8172 -6.3458 -20.5270 -0.0653 1.6488 -4.5359 7.6761 -3.2326 24.0244 2.5863 -1.6085 -2.1652 -0.7591 -1.2282 -16.3201 3.5502 3.7327 -20.5406 -7.5114 4.8883 5.5567 -2.4534 1.9090 5.2433 0.0000 -0.0000 0.0000 -24.2813 8.7323 -42.0122 33.1620 -43.4541 -13.5333 -0.0000 -0.0000 4.1250 -30.3323 -3.7008 2.1628 -7.1250 0.0000 -0.0000 -38.5699 23.5260 26.5066 0.0000 -0.0000 0.0000 15.9033 -25.5999 -22.8884 -35.0662 44.8593 -14.8600 0.0000 -0.0000 -2.0756 20.0128 -39.8074 -13.1257 7.1250 -0.0000 -0.0000 62.1885 -59.0206 -27.6445
-0.6925 18.8806 6.3055 1.1068 -8.6126 9.6285 0.0000 0.0000 0.0000 -15.3018 0.0928 -11.6300 1.1319 6.7571 18.9976 0.9759 2.2929 -19.6211 8.4311 -16.4273 -54.1010 0.0000 0.0000 0.0000 11.3813 7.7448 1.0373 0.0000 0.0000 -0.0000 -0.8264 -6.2127 -20.5199 -0.0608 1.5910 -4.3766 7.4613 -3.1348 24.2478 2.3458 -1.5600 -2.1155 -0.9325 -1.2034 -16.3840 3.4454 3.6406 -20.2801 -7.0805 4.7340 5.3086 -2.3187 1.8736 5.0992 -0.0000 -0.0000 0.0000 -25.5705 12.2558 -39.4090 37.1428 -46.2830 -16.3432 -0.0000 0.0000 -1.4216 -31.0487 -2.2960 1.3816 -7.1250 0.0000 -0.0000 -39.3618 24.6234 26.0109 -0.0000 -0.0000 0.0000 17.9452 -27.4797 -24.2226 -37.9834 46.8287 -16.9535 0.0000 -0.0000 -3.4838 14.7877 -38.4318 -9.3184 7.1250 -0.0000 -0.0000 56.0655 -59.4761 -24.3187
-0.7144 18.8828 6.3009 1.1076 -8.3725 9.6116 0.0000 0.0000 0.0000 -15.1745 -0.0548 -11.6405 1.1406 6.7821 19.0713 0.9632 2.2342 -19.4720 8.4513 -16.4413 -54.1723 0.0000 0.0000 0.0000 11.4791 7.5015 1.0427 0.0000 0.0000 -0.0000 -0.8437 -6.0083 -20.5412 -0.0472 1.4020 -3.8557 7.1290 -3.0158 24.5343 2.1403 -1.5084 -2.0625 -0.9978 -1.1647 -16.4751 3.1751 3.4871 -19.9439 -6.5054 4.5219 4.9661 -2.1191 1.8183 4.9042 -0.0000 0.0000 0.0000 -27.2893 16.8331 -35.5951 42.8109 -49.6498 -20.5565 -0.0000 0.0000 -8.2188 -29.4755 -0.6149 0.3476 -7.1250 0.0000 -0.0000 -39.2530 26.4633 23.4129 -0.0000 0.0000 0.0000 20.9375 -29.2396 -26.1921 -41.0396 48.6739 -19.2163 0.0000 -0.0000 -3.1799 10.5262 -36.2633 -6.2721 7.1250 -0.0000 -0.0000 49.7063 -59.0674 -20.1063
-0.7390 18.8848 6.2929 1.1496 -8.1243 9.6669 0.0000 0.0000 0.0000 -15.0803 -0.0839 -11.8156 1.1498 6.8086 19.1495 0.9484 2.0408 -19.2404 8.4529 -16.4425 -54.1782 0.0000 0.0000 0.0000 11.5278 7.2640 0.9548 0.0000 -0.0000 0.0000 -0.8574 -5.8170 -20.5387 -0.0365 1.2332 -3.3908 6.6772 -2.8429 24.8152 1.9585 -1.4099 -2.3983 -1.0098 -1.1044 -16.2752 2.6563 3.2318 -19.4707 -5.7107 4.2127 4.5356 -1.8223 1.7270 4.6479 0.0000 -0.0000 0.0000 -29.9034 19.9063 -34.4307 47.5237 -51.9466 -24.2101 -0.0000 0.0000 -12.3122 -27.1072 -0.7421 0.3799 -7.1250 0.0000 -0.0000 -38.0491 26.7876 21.7853 0.0000 -0.0000 0.0000 24.9420 -30.7980 -28.3064 -44.2816 50.4117 -21.6837 0.0000 -0.0000 -2.3126 2.7557 -34.5578 -1.5640 7.1250 -0.0000 -0.0000 40.6773 -59.6470 -16.1461
-0.7623 18.8858 6.2811 1.1249 -7.8711 9.8619 0.0000 0.0000 0.0000 -14.9277 -0.2074 -12.1438 1.1602 6.8383 19.2371 0.9335 1.9444 -19.0516 8.4907 -16.4686 -54.3117 0.0000 0.0000 0.0000 11.6203 7.0702 0.7071 0.0000 -0.0000 0.0000 -0.8689 -5.6241 -20.5176 -0.0234 0.9868 -2.7126 6.3018 -2.6438 24.9951 1.7716 -1.2755 -2.4005 -1.0562 -1.0238 -16.3601 2.0684 2.8854 -18.7626 -4.8609 3.7879 3.8514 -1.5117 1.5847 4.2754 -0.0000 -0.0000 0.0000 -33.3153 22.2459 -34.1577 53.1446 -54.1876 -28.7053 -0.0000 0.0000 -16.2221 -24.2426 -0.2111 0.0950 -7.1250 0.0000 -0.0000 -36.7112 27.6937 19.4847 -0.0000 -0.0000 0.0000 30.2890 -31.8894 -30.7523 -47.9499 52.1344 -24.5462 0.0000 -0.0000 -1.5069 -9.0831 -34.1590 5.1295 7.1250 -0.0000 -0.0000 28.5602 -62.1947 -12.4846
